<svg width="31" height="24" viewBox="0 0 31 24" fill="none" xmlns="http://www.w3.org/2000/svg">
<path d="M7.71484 2.08203C6.76432 2.08203 6.01562 2.36198 5.46875 2.92188C4.9349 3.48177 4.53125 4.22396 4.25781 5.14844C3.98438 6.0599 3.80859 7.10807 3.73047 8.29297C3.65234 9.46484 3.61328 10.6562 3.61328 11.8672C3.61328 13.4297 3.67839 14.862 3.80859 16.1641C3.9388 17.4661 4.16667 18.5924 4.49219 19.543C4.81771 20.4805 5.26042 21.2096 5.82031 21.7305C6.39323 22.2513 7.12891 22.5117 8.02734 22.5117C8.96484 22.5117 9.70703 22.2383 10.2539 21.6914C10.8008 21.1315 11.2174 20.4023 11.5039 19.5039C11.7904 18.5924 11.9727 17.5703 12.0508 16.4375C12.1419 15.2917 12.1875 14.1393 12.1875 12.9805C12.1875 11.457 12.1354 10.0378 12.0312 8.72266C11.9271 7.39453 11.7188 6.23568 11.4062 5.24609C11.0938 4.25651 10.6576 3.48177 10.0977 2.92188C9.55078 2.36198 8.82812 2.08203 7.92969 2.08203H7.71484ZM7.61719 23.6445C6.51042 23.6055 5.54036 23.3711 4.70703 22.9414C3.8737 22.5117 3.17057 21.8607 2.59766 20.9883C2.03776 20.1159 1.61458 19.0026 1.32812 17.6484C1.05469 16.2943 0.917969 14.6667 0.917969 12.7656C0.917969 11.4635 1.0026 10.1224 1.17188 8.74219C1.35417 7.34896 1.71224 6.07943 2.24609 4.93359C2.77995 3.77474 3.54167 2.82422 4.53125 2.08203C5.52083 1.32682 6.84896 0.949219 8.51562 0.949219C9.66146 0.949219 10.638 1.1901 11.4453 1.67188C12.2656 2.15365 12.9232 2.83724 13.418 3.72266C13.9128 4.60807 14.2773 5.66927 14.5117 6.90625C14.7461 8.13021 14.8633 9.47786 14.8633 10.9492C14.8633 11.7826 14.8372 12.6745 14.7852 13.625C14.7331 14.5625 14.6224 15.5 14.4531 16.4375C14.2839 17.375 14.0365 18.2799 13.7109 19.1523C13.3984 20.0117 12.9753 20.7799 12.4414 21.457C11.9076 22.1211 11.2435 22.6484 10.4492 23.0391C9.66797 23.4427 8.72396 23.6445 7.61719 23.6445ZM21.9727 16.4766C22.9883 15.3958 23.8151 14.4323 24.4531 13.5859C25.0911 12.7396 25.599 11.9844 25.9766 11.3203C26.3542 10.6432 26.6016 10.0312 26.7188 9.48438C26.849 8.9375 26.9141 8.41667 26.9141 7.92188C26.9141 6.61979 26.5365 5.54557 25.7812 4.69922C25.026 3.85286 23.9779 3.42969 22.6367 3.42969C21.582 3.42969 20.7227 3.60547 20.0586 3.95703C19.3945 4.29557 18.9128 5.00521 18.6133 6.08594L18.1836 7.55078H17.2656C17.3698 6.82161 17.4544 6.09896 17.5195 5.38281C17.5977 4.65365 17.6953 3.92448 17.8125 3.19531C18.5156 2.375 19.3359 1.79557 20.2734 1.45703C21.2109 1.11849 22.2005 0.949219 23.2422 0.949219C24.4141 0.949219 25.4102 1.11849 26.2305 1.45703C27.0508 1.78255 27.7279 2.22526 28.2617 2.78516C28.8086 3.33203 29.1992 3.96354 29.4336 4.67969C29.681 5.39583 29.8047 6.15104 29.8047 6.94531C29.8047 7.59635 29.7201 8.22135 29.5508 8.82031C29.3815 9.40625 29.1276 9.98568 28.7891 10.5586C28.4635 11.1315 28.0404 11.7305 27.5195 12.3555C27.0117 12.9674 26.4193 13.638 25.7422 14.3672L19.9219 20.5391C21.7708 20.5391 23.6133 20.5 25.4492 20.4219C27.2852 20.3438 29.1276 20.2786 30.9766 20.2266C30.9635 20.4479 30.9505 20.6823 30.9375 20.9297C30.9245 21.1771 30.918 21.418 30.918 21.6523C30.918 21.8997 30.9245 22.1471 30.9375 22.3945C30.9505 22.6289 30.9635 22.8633 30.9766 23.0977C29.7266 23.0716 28.5026 23.0456 27.3047 23.0195C26.1068 23.0065 24.9089 23 23.7109 23C22.487 23 21.2826 23.0065 20.0977 23.0195C18.9128 23.0456 17.7214 23.0716 16.5234 23.0977V22.2578L21.9727 16.4766Z" fill="#C4C4C4" fill-opacity="0.5"/>
</svg>
