<svg width="31" height="24" viewBox="0 0 31 24" fill="none" xmlns="http://www.w3.org/2000/svg">
<path d="M7.71484 2.08203C6.76432 2.08203 6.01562 2.36198 5.46875 2.92188C4.9349 3.48177 4.53125 4.22396 4.25781 5.14844C3.98438 6.0599 3.80859 7.10807 3.73047 8.29297C3.65234 9.46484 3.61328 10.6562 3.61328 11.8672C3.61328 13.4297 3.67839 14.862 3.80859 16.1641C3.9388 17.4661 4.16667 18.5924 4.49219 19.543C4.81771 20.4805 5.26042 21.2096 5.82031 21.7305C6.39323 22.2513 7.12891 22.5117 8.02734 22.5117C8.96484 22.5117 9.70703 22.2383 10.2539 21.6914C10.8008 21.1315 11.2174 20.4023 11.5039 19.5039C11.7904 18.5924 11.9727 17.5703 12.0508 16.4375C12.1419 15.2917 12.1875 14.1393 12.1875 12.9805C12.1875 11.457 12.1354 10.0378 12.0312 8.72266C11.9271 7.39453 11.7188 6.23568 11.4062 5.24609C11.0938 4.25651 10.6576 3.48177 10.0977 2.92188C9.55078 2.36198 8.82812 2.08203 7.92969 2.08203H7.71484ZM7.61719 23.6445C6.51042 23.6055 5.54036 23.3711 4.70703 22.9414C3.8737 22.5117 3.17057 21.8607 2.59766 20.9883C2.03776 20.1159 1.61458 19.0026 1.32812 17.6484C1.05469 16.2943 0.917969 14.6667 0.917969 12.7656C0.917969 11.4635 1.0026 10.1224 1.17188 8.74219C1.35417 7.34896 1.71224 6.07943 2.24609 4.93359C2.77995 3.77474 3.54167 2.82422 4.53125 2.08203C5.52083 1.32682 6.84896 0.949219 8.51562 0.949219C9.66146 0.949219 10.638 1.1901 11.4453 1.67188C12.2656 2.15365 12.9232 2.83724 13.418 3.72266C13.9128 4.60807 14.2773 5.66927 14.5117 6.90625C14.7461 8.13021 14.8633 9.47786 14.8633 10.9492C14.8633 11.7826 14.8372 12.6745 14.7852 13.625C14.7331 14.5625 14.6224 15.5 14.4531 16.4375C14.2839 17.375 14.0365 18.2799 13.7109 19.1523C13.3984 20.0117 12.9753 20.7799 12.4414 21.457C11.9076 22.1211 11.2435 22.6484 10.4492 23.0391C9.66797 23.4427 8.72396 23.6445 7.61719 23.6445ZM18.3203 3.09766C18.9974 2.32943 19.7721 1.78255 20.6445 1.45703C21.5299 1.11849 22.4805 0.949219 23.4961 0.949219C25.306 0.949219 26.7383 1.39193 27.793 2.27734C28.8607 3.14974 29.3945 4.32812 29.3945 5.8125C29.3945 6.84115 29.043 7.79167 28.3398 8.66406C27.6497 9.53646 26.8294 10.3242 25.8789 11.0273C27.4414 11.2747 28.6523 11.7891 29.5117 12.5703C30.3711 13.3385 30.8008 14.4648 30.8008 15.9492C30.8008 16.9388 30.5404 17.9023 30.0195 18.8398C29.4987 19.7643 28.8086 20.5846 27.9492 21.3008C27.0898 22.0039 26.1133 22.5703 25.0195 23C23.9388 23.4297 22.8385 23.6445 21.7188 23.6445C21.4583 23.6445 21.1523 23.6185 20.8008 23.5664C20.4492 23.5273 20.0911 23.4688 19.7266 23.3906C19.362 23.3125 18.9974 23.2214 18.6328 23.1172C18.2682 23.013 17.9297 22.9089 17.6172 22.8047C17.487 21.4245 17.1159 19.862 16.5039 18.1172L17.3633 17.7852C17.832 19.3086 18.5091 20.4479 19.3945 21.2031C20.2799 21.9583 21.5234 22.3359 23.125 22.3359C23.8672 22.3359 24.5312 22.1927 25.1172 21.9062C25.7031 21.6198 26.1914 21.2227 26.582 20.7148C26.9857 20.207 27.2917 19.6341 27.5 18.9961C27.7214 18.3581 27.832 17.6875 27.832 16.9844C27.832 15.5781 27.487 14.4518 26.7969 13.6055C26.1198 12.7461 25.0391 12.3164 23.5547 12.3164C23.0078 12.3164 22.526 12.3945 22.1094 12.5508C21.6927 12.694 21.3021 12.8503 20.9375 13.0195L20.7227 12.8242L21.1133 11.125C21.3346 11.151 21.5625 11.1771 21.7969 11.2031C22.0312 11.2161 22.2721 11.2227 22.5195 11.2227C23.1706 11.2227 23.7565 11.099 24.2773 10.8516C24.8112 10.5911 25.2604 10.2526 25.625 9.83594C26.0026 9.41927 26.2826 8.94401 26.4648 8.41016C26.6602 7.8763 26.7578 7.34245 26.7578 6.80859C26.7578 6.28776 26.6536 5.79297 26.4453 5.32422C26.25 4.85547 25.9766 4.45833 25.625 4.13281C25.2734 3.80729 24.8633 3.55339 24.3945 3.37109C23.9388 3.1888 23.4375 3.09766 22.8906 3.09766C22.487 3.09766 22.0703 3.16276 21.6406 3.29297C21.2109 3.42318 20.8073 3.59245 20.4297 3.80078C20.0651 3.99609 19.7526 4.23047 19.4922 4.50391C19.2318 4.76432 19.0495 5.01823 18.9453 5.26562L18.3984 7.0625H17.3828L18.3203 3.09766Z" fill="#C4C4C4" fill-opacity="0.5"/>
</svg>
