<svg width="30" height="24" viewBox="0 0 30 24" fill="none" xmlns="http://www.w3.org/2000/svg">
<path d="M7.71484 2.08203C6.76432 2.08203 6.01562 2.36198 5.46875 2.92188C4.9349 3.48177 4.53125 4.22396 4.25781 5.14844C3.98438 6.0599 3.80859 7.10807 3.73047 8.29297C3.65234 9.46484 3.61328 10.6562 3.61328 11.8672C3.61328 13.4297 3.67839 14.862 3.80859 16.1641C3.9388 17.4661 4.16667 18.5924 4.49219 19.543C4.81771 20.4805 5.26042 21.2096 5.82031 21.7305C6.39323 22.2513 7.12891 22.5117 8.02734 22.5117C8.96484 22.5117 9.70703 22.2383 10.2539 21.6914C10.8008 21.1315 11.2174 20.4023 11.5039 19.5039C11.7904 18.5924 11.9727 17.5703 12.0508 16.4375C12.1419 15.2917 12.1875 14.1393 12.1875 12.9805C12.1875 11.457 12.1354 10.0378 12.0312 8.72266C11.9271 7.39453 11.7188 6.23568 11.4062 5.24609C11.0938 4.25651 10.6576 3.48177 10.0977 2.92188C9.55078 2.36198 8.82812 2.08203 7.92969 2.08203H7.71484ZM7.61719 23.6445C6.51042 23.6055 5.54036 23.3711 4.70703 22.9414C3.8737 22.5117 3.17057 21.8607 2.59766 20.9883C2.03776 20.1159 1.61458 19.0026 1.32812 17.6484C1.05469 16.2943 0.917969 14.6667 0.917969 12.7656C0.917969 11.4635 1.0026 10.1224 1.17188 8.74219C1.35417 7.34896 1.71224 6.07943 2.24609 4.93359C2.77995 3.77474 3.54167 2.82422 4.53125 2.08203C5.52083 1.32682 6.84896 0.949219 8.51562 0.949219C9.66146 0.949219 10.638 1.1901 11.4453 1.67188C12.2656 2.15365 12.9232 2.83724 13.418 3.72266C13.9128 4.60807 14.2773 5.66927 14.5117 6.90625C14.7461 8.13021 14.8633 9.47786 14.8633 10.9492C14.8633 11.7826 14.8372 12.6745 14.7852 13.625C14.7331 14.5625 14.6224 15.5 14.4531 16.4375C14.2839 17.375 14.0365 18.2799 13.7109 19.1523C13.3984 20.0117 12.9753 20.7799 12.4414 21.457C11.9076 22.1211 11.2435 22.6484 10.4492 23.0391C9.66797 23.4427 8.72396 23.6445 7.61719 23.6445ZM17.9297 3.85938C19.2318 3.41667 20.5078 2.9349 21.7578 2.41406C23.0208 1.89323 24.1667 1.35286 25.1953 0.792969L25.6445 0.949219V19.9141C25.6445 20.2786 25.6706 20.6172 25.7227 20.9297C25.7747 21.2292 25.8854 21.4505 26.0547 21.5938C26.276 21.763 26.5234 21.8802 26.7969 21.9453C27.0703 21.9974 27.3828 22.0299 27.7344 22.043L29.3945 22.1406V23.0977C28.1966 23.0716 27.2135 23.0456 26.4453 23.0195C25.6771 23.0065 24.9609 23 24.2969 23C23.9583 23 23.6198 23.0065 23.2812 23.0195C22.9427 23.0326 22.5651 23.0391 22.1484 23.0391C21.7318 23.0521 21.276 23.0651 20.7812 23.0781C20.2865 23.0911 19.7266 23.0977 19.1016 23.0977V22.1406L20.8789 22.043C21.2174 22.0299 21.5234 21.9974 21.7969 21.9453C22.0833 21.8802 22.3307 21.763 22.5391 21.5938C22.7083 21.4505 22.819 21.2292 22.8711 20.9297C22.9232 20.6172 22.9492 20.2786 22.9492 19.9141V4.40625C22.9492 4.1849 22.9362 3.95703 22.9102 3.72266C22.8971 3.48828 22.8255 3.37109 22.6953 3.37109C22.6562 3.37109 22.6302 3.3776 22.6172 3.39062L18.4766 5.24609H18.1641L17.9297 3.85938Z" fill="#C4C4C4" fill-opacity="0.5"/>
</svg>
